<svg xmlns="http://www.w3.org/2000/svg" viewBox="0 0 32 32" width="256" height="256"><path d="M22,19.48c1.79-2.8,3.36-5.79,3.58-7.94a9.5,9.5,0,0,0-2.56-7.23A9.59,9.59,0,0,0,16,1,9.48,9.48,0,0,0,9.2,4.17a9.84,9.84,0,0,0-2.73,7.35c.17,2.22,1.7,5.19,3.47,8C5.35,20.25,1,22,1,25c0,3.9,7.73,6,15,6s15-2.1,15-6C31,22,26.66,20.24,22,19.48ZM18.79,9a2.74,2.74,0,1,1-2.74-2.74A2.74,2.74,0,0,1,18.79,9ZM16,29C8.06,29,3,26.63,3,25c0-1.31,3-3,8.17-3.68,1,1.41,2,2.7,2.78,3.73a2.63,2.63,0,0,0,2.08,1h0a2.63,2.63,0,0,0,2.08-1c.79-1,1.74-2.31,2.7-3.7C26,22,29,23.69,29,25,29,26.63,23.94,29,16,29Z" data-name="Layer 2" fill="#9ca3af" class="color000 svgShape"></path></svg>