<svg  aria-hidden="true" xmlns="http://www.w3.org/2000/svg" fill="currentColor" viewBox="0 0 24 24"><path d="M21.5,20.793H19.89V5.707a.5.5,0,0,0-.386-.486l-8.52-2a.483.483,0,0,0-.424.094.5.5,0,0,0-.19.392V7.214H5.605a.5.5,0,0,0-.5.5V20.793H3.5a.5.5,0,0,0,0,1h18a.5.5,0,0,0,0-1ZM11.37,4.338,18.89,6.1V20.793H14.632V7.714a.5.5,0,0,0-.5-.5H11.37ZM6.105,8.214h4.746c.007,0,.012,0,.019,0s.013,0,.02,0h2.742V20.793H6.105Zm9.968,11a.5.5,0,0,1,.5-.5h.851a.5.5,0,0,1,0,1h-.851A.5.5,0,0,1,16.073,19.211Zm-3.412,0a.5.5,0,0,1-.5.5h-.85a.5.5,0,0,1,0-1h.85A.5.5,0,0,1,12.661,19.211Zm0-2.308a.5.5,0,0,1-.5.5h-.85a.5.5,0,0,1,0-1h.85A.5.5,0,0,1,12.661,16.9Zm0-2.308a.5.5,0,0,1-.5.5h-.85a.5.5,0,0,1,0-1h.85A.5.5,0,0,1,12.661,14.6Zm0-2.308a.5.5,0,0,1-.5.5h-.85a.5.5,0,0,1,0-1h.85A.5.5,0,0,1,12.661,12.287Zm-1.85-2.308a.5.5,0,0,1,.5-.5h.85a.5.5,0,1,1,0,1h-.85A.5.5,0,0,1,10.811,9.979ZM8.927,19.211a.5.5,0,0,1-.5.5H7.576a.5.5,0,0,1,0-1h.851A.5.5,0,0,1,8.927,19.211Zm0-2.308a.5.5,0,0,1-.5.5H7.576a.5.5,0,0,1,0-1h.851A.5.5,0,0,1,8.927,16.9Zm0-2.308a.5.5,0,0,1-.5.5H7.576a.5.5,0,1,1,0-1h.851A.5.5,0,0,1,8.927,14.6Zm0-2.308a.5.5,0,0,1-.5.5H7.576a.5.5,0,1,1,0-1h.851A.5.5,0,0,1,8.927,12.287Zm0-2.308a.5.5,0,0,1-.5.5H7.576a.5.5,0,0,1,0-1h.851A.5.5,0,0,1,8.927,9.979ZM16.073,16.9a.5.5,0,0,1,.5-.5h.851a.5.5,0,0,1,0,1h-.851A.5.5,0,0,1,16.073,16.9Zm0-2.308a.5.5,0,0,1,.5-.5h.851a.5.5,0,0,1,0,1h-.851A.5.5,0,0,1,16.073,14.6Zm0-2.308a.5.5,0,0,1,.5-.5h.851a.5.5,0,0,1,0,1h-.851A.5.5,0,0,1,16.073,12.287Zm0-2.308a.5.5,0,0,1,.5-.5h.851a.5.5,0,0,1,0,1h-.851A.5.5,0,0,1,16.073,9.979Zm0-2.308a.5.5,0,0,1,.5-.5h.851a.5.5,0,0,1,0,1h-.851A.5.5,0,0,1,16.073,7.671Z" fill="#9ca3af" className="color000 svgShape"></path></svg>