<svg xmlns="http://www.w3.org/2000/svg"  viewBox="0 0 128 128" width="256" height="256"><path d="M30.21 52.55a2 2 0 0 0-2-.08l-14 7.15a2 2 0 0 0-1.09 1.78v5.76l18-8.56V54.26A2 2 0 0 0 30.21 52.55zM58.21 39.53a2 2 0 0 0-2-.08l-14 7.15a2 2 0 0 0-1.09 1.78v5.45l18-8.56v-4A2 2 0 0 0 58.21 39.53zM84.05 71.42a2 2 0 0 0-1.95-.09l-14 7A2 2 0 0 0 67 80.13v20.2l-2.59-2.59a2 2 0 0 0-2.83 2.83l6 6a2.05 2.05 0 0 0 2.32.37l4.78-2.44v4l-3.22 1.64a2 2 0 0 0 1.82 3.57l9.83-5a2 2 0 0 0-1.82-3.57l-2.61 1.34v-4l5.22-2.67A2 2 0 0 0 85 98V73.12A2 2 0 0 0 84.05 71.42zM44 75v4.45l13.65-6.6A6 6 0 0 1 57 70.11V68.69zM33 89.15a2 2 0 0 0 2-2V84.7L38.83 83A2 2 0 0 0 40 81.13v-9a2 2 0 0 0-2.83-1.82l-11 5A2 2 0 0 0 25 77.13v9a2 2 0 0 0 .92 1.68 2.06 2.06 0 0 0 1.91.14L31 86.52v.62A2 2 0 0 0 33 89.15zM69 73.12a2 2 0 0 0 2-2V68.67l3.83-1.74A2 2 0 0 0 76 65.11v-9a2 2 0 0 0-2.83-1.82l-11 5A2 2 0 0 0 61 61.1v9a2 2 0 0 0 .92 1.68 2 2 0 0 0 1.91.14L67 70.49v.62A2 2 0 0 0 69 73.12zM52.11 85.35l-14 7A2.06 2.06 0 0 0 37 94.15v20.2l-2.59-2.59a2 2 0 0 0-2.83 2.83l6 6a2.05 2.05 0 0 0 2.32.37l4.78-2.44v4l-3.22 1.64a2 2 0 1 0 1.82 3.57l9.83-5a2 2 0 0 0-1.82-3.57l-2.61 1.34v-4l5.22-2.67A2 2 0 0 0 55 112V87.14a1.87 1.87 0 0 0-.12-.67A2.06 2.06 0 0 0 52.11 85.35z" fill="#9ca3af" class="color000 svgShape"></path><path d="M95,65.22a2,2,0,0,0-1.07-1.79L84,58.18V41.07a2,2,0,0,0-2.86-1.81l-80,38.06A2,2,0,0,0,0,79.13V121.2a2,2,0,0,0,1,1.71,2.07,2.07,0,0,0,2,.07l25-12.87A5.84,5.84,0,0,1,33,107.18V103l-29,15V101.35l7.81,5.47a2,2,0,0,0,2,.15L33,97.4V94.15a6.06,6.06,0,0,1,.16-1.31l-20,10-7.18-5L22.33,89.9A6,6,0,0,1,21,86.14v0L4,94.31V80.4L80,44.24V62l1.4-.68,7.21,3.81-4.28,2.14a5.89,5.89,0,0,1,1.81.72,6,6,0,0,1,1.91,1.9L93.89,67A2,2,0,0,0,95,65.22Z" fill="#9ca3af" class="color000 svgShape"></path><polygon points="63 87.48 59 89.55 59 94.05 63 91.99 63 87.48" fill="#9ca3af" class="color000 svgShape"></polygon><path d="M63 80.13a6 6 0 0 1 .52-2.45l-8 4a5.75 5.75 0 0 1 .65.35 6 6 0 0 1 2.31 2.65L63 82.42zM128 38.4V2A2 2 0 0 0 125.34.11L44 28.41 2.53 17.1a2 2 0 0 0-1.74.34A2 2 0 0 0 0 19V56.92a2 2 0 0 0 1.43 1.92l7.75 2.33a6.06 6.06 0 0 1 1.49-3.73L4 55.43V21.65L70.53 39.81l8.9-4.23a6.09 6.09 0 0 1 5.78.35A5.92 5.92 0 0 1 88 40.74 2.26 2.26 0 0 1 88 41v3.58l36 9.83v37L89 81v4.19l36.43 10.93A2 2 0 0 0 128 94.15V52.88a2 2 0 0 0-1.47-1.94l-16.74-4.56 16.89-6.1A2 2 0 0 0 128 38.4z" fill="#9ca3af" class="color000 svgShape"></path></svg>