<svg xmlns="http://www.w3.org/2000/svg" width="200" height="200" viewBox="0 0 200 200">
  <!-- Workflow paths with animation -->
  <path d="M40 100 H160 M40 60 H160 M40 140 H160" stroke="#3498db" stroke-width="4" stroke-linecap="round" fill="none">
    <animate attributeName="stroke-dasharray" from="0,220" to="220,220" dur="3s" repeatCount="indefinite" />
  </path>
  
  <!-- Customization nodes with pulse animation -->
  <g>
    <circle cx="40" cy="60" r="10" fill="#2ecc71">
      <animate attributeName="r" values="10;12;10" dur="2s" repeatCount="indefinite" />
    </circle>
    <circle cx="100" cy="60" r="10" fill="#e74c3c">
      <animate attributeName="r" values="10;12;10" dur="2s" begin="0.5s" repeatCount="indefinite" />
    </circle>
    <circle cx="160" cy="60" r="10" fill="#f39c12">
      <animate attributeName="r" values="10;12;10" dur="2s" begin="1s" repeatCount="indefinite" />
    </circle>
    
    <circle cx="40" cy="100" r="10" fill="#9b59b6">
      <animate attributeName="r" values="10;12;10" dur="2s" begin="0.3s" repeatCount="indefinite" />
    </circle>
    <circle cx="100" cy="100" r="10" fill="#1abc9c">
      <animate attributeName="r" values="10;12;10" dur="2s" begin="0.8s" repeatCount="indefinite" />
    </circle>
    <circle cx="160" cy="100" r="10" fill="#34495e">
      <animate attributeName="r" values="10;12;10" dur="2s" begin="1.3s" repeatCount="indefinite" />
    </circle>
    
    <circle cx="40" cy="140" r="10" fill="#e67e22">
      <animate attributeName="r" values="10;12;10" dur="2s" begin="0.6s" repeatCount="indefinite" />
    </circle>
    <circle cx="100" cy="140" r="10" fill="#3498db">
      <animate attributeName="r" values="10;12;10" dur="2s" begin="1.1s" repeatCount="indefinite" />
    </circle>
    <circle cx="160" cy="140" r="10" fill="#2ecc71">
      <animate attributeName="r" values="10;12;10" dur="2s" begin="1.6s" repeatCount="indefinite" />
    </circle>
  </g>
  
  <!-- Connecting lines with fade animation -->
  <g stroke="#bdc3c7" stroke-width="2" stroke-dasharray="5,5" fill="none">
    <path d="M50 60 V140">
      <animate attributeName="opacity" values="0.3;1;0.3" dur="4s" repeatCount="indefinite" />
    </path>
    <path d="M110 60 V140">
      <animate attributeName="opacity" values="0.3;1;0.3" dur="4s" begin="1s" repeatCount="indefinite" />
    </path>
    <path d="M170 60 V140">
      <animate attributeName="opacity" values="0.3;1;0.3" dur="4s" begin="2s" repeatCount="indefinite" />
    </path>
  </g>
  
  <!-- Gear icon for customization with rotation -->
  <g transform="translate(170, 30) scale(0.7)">
    <animateTransform attributeName="transform" type="rotate" from="0 185 45" to="360 185 45" dur="10s" repeatCount="indefinite" />
    <path d="M19.4,24c-0.2,1.4-1.2,2.4-2.4,2.4H17c-1.2,0-2.2-1-2.4-2.4l-0.3-2.2c-0.5-0.2-1-0.5-1.4-0.8l-2,1.1c-1,0.6-2.3,0.3-3-0.7l0,0c-0.7-1-0.4-2.3,0.6-3l1.8-1.4c-0.1-0.5-0.1-1.1,0-1.6l-1.8-1.4c-1-0.7-1.3-2-0.6-3l0,0c0.7-1,2-1.3,3-0.7l2,1.1c0.4-0.3,0.9-0.6,1.4-0.8l0.3-2.2c0.2-1.4,1.2-2.4,2.4-2.4H17c1.2,0,2.2,1,2.4,2.4l0.3,2.2c0.5,0.2,1,0.5,1.4,0.8l2-1.1c1-0.6,2.3-0.3,3,0.7l0,0c0.7,1,0.4,2.3-0.6,3l-1.8,1.4c0.1,0.5,0.1,1.1,0,1.6l1.8,1.4c1,0.7,1.3,2,0.6,3l0,0c-0.7,1-2,1.3-3,0.7l-2-1.1c-0.4,0.3-0.9,0.6-1.4,0.8L19.4,24z M17,20c1.7,0,3-1.3,3-3s-1.3-3-3-3s-3,1.3-3,3S15.3,20,17,20z" fill="#34495e"/>
  </g>
</svg>