<svg className="w-6 text-gray-500 dark:text-gray-400" aria-hidden="true" xmlns="http://www.w3.org/2000/svg" fill="currentColor" viewBox="0 0 400 400" ><path d="M224.7,42.7c-100.5,0-182.2,81.7-182.2,182.2c0,41.5,13.5,80.6,39.2,113l4.2,5.3l0.3-0.7c11.2,13.1,24,24.4,38.2,33.8
	                            c0.3,1.4,1.3,2.6,2.7,3.1c0.4,0.1,0.8,0.2,1.2,0.2c0.4,0,0.7-0.1,1-0.1c23.4,14.4,49.9,23.5,77.5,26.3v0l3.7,0.3c0,0,0,0,0,0l0,0
	                            c1.4,0.1,2.8,0.2,4.2,0.3l0.1,0v0c3.4,0.2,6.8,0.3,10.1,0.3c3.4,0,6.8-0.1,10.2-0.3l4.1-0.2c29-2.3,56.8-11.6,81.2-26.6
	                            c0.2,0,0.4,0.1,0.7,0.1c0.4,0,0.8,0,1.2-0.2c1.3-0.4,2.3-1.5,2.7-2.7c14.2-9.3,27.1-20.7,38.4-33.7l0.1,0.2l4.3-5.3
	                            c25.6-32.5,39.2-71.5,39.2-113C406.9,124.4,325.2,42.7,224.7,42.7z M398.8,225c0,37.3-11.5,72.5-33.3,102.4
	                            c-11.3-20.5-32.8-33.3-56.5-33.3h-29.1l-16.2-16.2v-8.7c16.6-11.1,28.3-29,30.9-49.8c13.8-1.5,24.6-13.2,24.6-27.4
	                            c0-9-4.4-17.1-11.1-22.1l2-54.7c0-3.5-0.4-7-1-10.5c-0.1-2-0.7-12.5-5.2-23.1c-3.3-7.8-7.8-13.7-13.4-17.7
	                            C354,89.9,398.8,152.3,398.8,225z M153.7,211.2c-8.9-1.8-15.6-9.8-15.6-19.2c0-7.4,4.1-13.9,10.2-17.2h5.4v35.5
	                            C153.7,210.6,153.7,210.9,153.7,211.2z M148,166.1v-49.5c0-11.1,1.6-17.8,3.9-22.5l25.3,5c0.4,0.3,1,0.6,1.7,1.1
	                            c-1.5,24.6-16.1,53.4-22.1,64.3C153.7,164.5,150.7,165.1,148,166.1z M301.2,105.9c0.6,3.1,0.9,6.3,0.9,9.4l-2,46.6h-7.3
	                            c-3.6-6.3-12.7-22.1-18.3-43.9l-0.8-2.9l-3-0.1c-43.7-1.1-72.1-13.3-83.7-19.5c0,0,0-0.1,0-0.1l-0.2,0c-3.8-2-5.7-3.3-5.8-3.4
	                            l-0.7-0.5l-22.1-4.3c4.6-9.5,15.2-21.5,21.2-21.8c5.9-0.4,35.3-0.2,58.9,0c14.2,0.1,26.5,0.1,31,0.1c0.1,0,0.2,0,0.3,0
	                            c25.9,0,30.5,28.4,31.3,37.2l-0.3,0.2L301.2,105.9z M311.3,192c0,9.6-6.9,17.6-16,19.3c0-0.3,0-0.6,0-1v-37.5
	                            C304.4,174.4,311.3,182.4,311.3,192z M291.3,169.9v0.8c0,0-0.2-0.3-0.5-0.8H291.3z M161.7,171.9c3.6-6.2,21.8-38.3,24.9-67.6
	                            c13.5,6.7,40.6,17.1,80.9,18.5c7.3,26,18.9,44.1,19.5,45.1l0.3,0.5v41.8c0,34.6-28.2,62.8-62.8,62.8s-62.8-28.2-62.8-62.8V171.9z
	                            M193.8,289.2l6.9,6.9l-0.2-0.1l18.3,18.4l-0.3,0.3c-4.8,1.9-8.6,5.6-10.4,10.4l-1.6,1.6l-28.6-28.6l11.9-11.9l4.1,4.3V289.2z
	                            M255.4,278l-30.8,30.8l-30.5-30.5l0,0l-0.1-0.1v-4.1c9.2,4.4,19.6,6.9,30.5,6.9c11.1,0,21.6-2.6,30.9-7.1V278z M241.8,325.1
	                            c-0.1-0.4-0.3-0.7-0.4-1c-0.1-0.2-0.2-0.4-0.3-0.6c-0.2-0.5-0.5-0.9-0.8-1.4c-0.1-0.1-0.1-0.2-0.2-0.3c-0.3-0.5-0.7-1-1-1.4
	                            c0,0,0,0,0,0c-2.1-2.6-4.8-4.6-8-5.7l-0.3-0.3l28.6-28.6l12.4,12.3L243,326.6l-1.2-1.2C241.8,325.3,241.8,325.2,241.8,325.1z
	                            M224.6,50.8c16.6,0,32.7,2.3,48,6.7c-0.9-0.1-1.8-0.1-2.8-0.1c-0.1,0-0.3,0-0.4,0c-4.5,0.1-16.7,0-30.9-0.1
	                            c-25-0.1-53.2-0.3-59.4,0c-9.6,0.6-20.8,13.3-26.6,23.9c-6.4,8.3-12.4,20.1-12.4,35.3v54.1c-6.1,5.1-10,12.7-10,21.2
	                            c0,14.1,10.6,25.7,24.2,27.4c2.7,20.9,14.6,39,31.5,50.1v9.2L170.4,294h-29.7c-23.9,0-45.5,13.1-56.8,33.9
	                            c-22-30-33.6-65.4-33.6-102.9C50.4,128.9,128.5,50.8,224.6,50.8z M133.4,372.7l5.4-17.1c0.7-2.1-0.5-4.3-2.6-5
	                            c-2.1-0.7-4.3,0.5-5,2.6l-4.7,14.9c-13.7-9.4-26.1-20.7-36.7-33.8c0.9-1.8,1.8-3.5,2.8-5.2c10.2-16.4,28.2-26.6,47.9-26.6H171
	                            l35.5,35.5l0.1-0.1l0,0l0.4-0.4c0.5,4.2,2.5,8,5.6,10.9c-3.6,9.8-5.7,24.6-5.7,40.3v0.1v8.8C180.7,395.1,155.6,386.4,133.4,372.7z
	                            M214.8,398.4V389c0-16.2,2.4-31.5,6.2-40l1.4-3.2l0,0l0-0.1l-2.9-1.9c-3-1.9-4.7-5.1-4.7-8.5v-3.7c0-0.7,0.1-1.3,0.2-2l0.1-0.1
	                            l0.3-0.9c0.9-2.9,3.2-5.3,6.1-6.4l0.3-0.1c1.9-0.6,3.8-0.7,5.8-0.1l0.4,0.1c2.7,0.9,4.9,2.9,6,5.4c0.2,0.4,0.3,0.8,0.4,1.2l0,0
	                            c0.2,0.8,0.3,1.4,0.4,2.1c0,0.2,0,0.5,0,0.7v3.8c0,3.5-1.8,6.6-4.7,8.5l-2.9,1.9l1.4,3.2c3.8,8.5,6.2,23.8,6.2,40v9.5
	                            C228.2,398.8,221.5,398.8,214.8,398.4z M323,368.5l-4.8-15.2c-0.6-2.1-2.9-3.3-5-2.6c-2.1,0.6-3.3,2.9-2.6,5l5.5,17.3
	                            c-22.1,13.5-47,22.1-73,24.8V389c0-15.9-2.1-30.6-5.7-40.4c2.2-2.2,3.8-4.8,4.7-7.7c0,0,0,0,0,0c0.1-0.2,0.1-0.4,0.2-0.7
	                            c0.2-0.8,0.4-1.6,0.5-2.4l0.2,0.2l0,0l0,0l35.4-35.4h30.4c21.9,0,41.6,12.6,51,32.2C349.1,347.8,336.7,359.1,323,368.5z" fill="#9ca3af" class="color000 svgShape"></path></svg>