<svg xmlns="http://www.w3.org/2000/svg" enable-background="new 0 0 24 24" viewBox="0 0 24 24" width="256" height="256"><circle cx="7.5" cy="10.5" r="2" fill="none" stroke="#9ca3af" stroke-linecap="round" stroke-linejoin="round" class="colorStroke303c42 svgStroke"></circle><path fill="none" stroke="#9ca3af" stroke-linecap="round" stroke-linejoin="round" d="M7.5,14c-1.1,0.1-2.2,0.4-3.2,1c-0.5,0.3-0.8,0.9-0.8,1.6v0.3c0,0.3,0.2,0.6,0.6,0.7h6.9     c0.3,0,0.6-0.3,0.6-0.7v-0.3c0-0.6-0.3-1.2-0.8-1.6C9.7,14.4,8.6,14.1,7.5,14z" class="colorStroke303c42 svgStroke"></path><line x1="14.5" x2="20.5" y1="15.5" y2="15.5" fill="none" stroke="#9ca3af" stroke-linecap="round" stroke-linejoin="round" class="colorStroke303c42 svgStroke"></line><line x1="20.5" x2="12.5" y1="12.5" y2="12.5" fill="none" stroke="#9ca3af" stroke-linecap="round" stroke-linejoin="round" class="colorStroke303c42 svgStroke"></line><path fill="none" stroke="#9ca3af" stroke-linecap="round" stroke-linejoin="round" d="M10.5,5.5H2C1.2,5.5,0.5,6.2,0.5,7v12c0,0.8,0.7,1.5,1.5,1.5h20c0.8,0,1.5-0.7,1.5-1.5V7    c0-0.8-0.7-1.5-1.5-1.5h-8.5" class="colorStroke303c42 svgStroke"></path><path fill="none" stroke="#9ca3af" stroke-linecap="round" stroke-linejoin="round" d="M12,3.5L12,3.5c0.8,0,1.5,0.7,1.5,1.5v2.5l0,0h-3l0,0V5C10.5,4.2,11.2,3.5,12,3.5z" class="colorStroke303c42 svgStroke"></path></svg>