<svg xmlns="http://www.w3.org/2000/svg" viewBox="0 0 100 100" width="256" height="256"><path d="m90.036 43.328-7.835 22.007a20.421 20.421 0 0 1-4.748 7.519l-6.361 6.379 1.813 9.092a1.68 1.68 0 1 1-3.295.656l-.065-.328-1.923-9.644a1.68 1.68 0 0 1 .458-1.515l6.995-7.014a17.033 17.033 0 0 0 3.96-6.274L86.87 42.2a1.88 1.88 0 0 0-.089-1.429c-.105-.215-.349-.6-.809-.754a1.87 1.87 0 0 0-.512-.097c-.548-.049-1.136.364-1.441.981l-6.352 11.356c.839 3.555-3.788 11.364-5.241 13.696a1.68 1.68 0 0 1-2.852-1.779c2.783-4.468 4.935-9.32 4.864-10.87-.203-.163-.806-.579-1.762-.613-.179-.015-1.395.522-3.266 3.051l-5.916 7.421c-.146.181-.33.332-.535.44-.079.043-7.922 4.247-7.922 11.088 0 7.583 1.884 13.375 1.904 13.433.058.176.077.353.077.529a1.678 1.678 0 0 1-1.144 1.595 1.685 1.685 0 0 1-2.124-1.065c-.084-.255-2.075-6.335-2.075-14.491 0-8.065 7.674-12.901 9.397-13.886l5.672-7.111c2.208-2.985 4.177-4.46 6.053-4.36a6.43 6.43 0 0 1 2.36.527l5.89-10.528c.877-1.763 2.705-2.88 4.595-2.769a5.23 5.23 0 0 1 1.397.266c1.203.402 2.184 1.28 2.764 2.47a5.227 5.227 0 0 1 .233 4.027zM38.919 60.805l-5.633-7.06c-2.242-3.035-4.208-4.476-6.087-4.412a6.435 6.435 0 0 0-2.36.527l-5.851-10.458c-.914-1.831-2.715-2.918-4.627-2.841a5.371 5.371 0 0 0-1.403.267c-1.203.402-2.185 1.28-2.762 2.47a5.25 5.25 0 0 0-.234 4.029l7.835 22.008a20.466 20.466 0 0 0 4.747 7.519l6.36 6.379-1.813 9.092a1.679 1.679 0 1 0 3.295.656l.065-.328 1.924-9.644a1.682 1.682 0 0 0-.458-1.515l-6.993-7.014a17.032 17.032 0 0 1-3.958-6.273L13.128 42.2a1.89 1.89 0 0 1 .09-1.429c.105-.215.35-.601.806-.754.171-.056.338-.089.52-.098.599-.007 1.127.366 1.474 1.055L22.33 52.26c-.837 3.555 3.785 11.361 5.238 13.694a1.68 1.68 0 0 0 2.316.537 1.682 1.682 0 0 0 .537-2.316c-2.784-4.468-4.935-9.322-4.861-10.872.205-.165.808-.577 1.761-.612.335-.008 1.407.538 3.299 3.1l5.88 7.372a1.7 1.7 0 0 0 .537.442c.08.041 7.917 4.208 7.917 11.086 0 7.583-1.883 13.375-1.903 13.433a1.67 1.67 0 0 0-.077.529 1.677 1.677 0 0 0 1.144 1.595c.88.289 1.83-.185 2.124-1.065.084-.256 2.073-6.337 2.073-14.491 0-8.066-7.671-12.902-9.396-13.887zm1.838-25.93a1.68 1.68 0 0 0-1.681-1.68H28.993a1.68 1.68 0 1 0 0 3.361h10.083a1.68 1.68 0 0 0 1.681-1.681zm16.805 0a1.68 1.68 0 0 0 1.681 1.681h10.083a1.68 1.68 0 1 0 0-3.361H59.243a1.68 1.68 0 0 0-1.681 1.68zm-8.402-8.402a1.68 1.68 0 0 0 1.681-1.681V14.709a1.68 1.68 0 1 0-3.361 0v10.083a1.679 1.679 0 0 0 1.68 1.681zm0 16.805a1.68 1.68 0 0 0-1.68 1.68v10.084c0 .929.752 1.68 1.68 1.68a1.68 1.68 0 0 0 1.681-1.68V44.958a1.68 1.68 0 0 0-1.681-1.68zm5.524-23.63a16.194 16.194 0 0 1 9.696 9.689 1.68 1.68 0 1 0 3.158-1.148 19.537 19.537 0 0 0-11.705-11.698 1.682 1.682 0 0 0-2.153 1.004 1.677 1.677 0 0 0 1.004 2.153zM31.782 30.362a1.683 1.683 0 0 0 2.154-1.008 16.186 16.186 0 0 1 9.684-9.699 1.68 1.68 0 1 0-1.152-3.158 19.545 19.545 0 0 0-11.693 11.712 1.68 1.68 0 0 0 1.007 2.153zm10.705 22.897a1.676 1.676 0 0 0 2.153-1.004 1.68 1.68 0 0 0-1.004-2.153 16.194 16.194 0 0 1-9.696-9.689 1.678 1.678 0 0 0-2.153-1.004 1.679 1.679 0 0 0-1.005 2.153 19.535 19.535 0 0 0 11.705 11.697zm21.898-12.863a16.186 16.186 0 0 1-9.684 9.699 1.68 1.68 0 1 0 1.152 3.157 19.541 19.541 0 0 0 11.693-11.711 1.68 1.68 0 0 0-1.008-2.153 1.691 1.691 0 0 0-2.153 1.008zm-20.267-5.521a5.047 5.047 0 0 1 5.041-5.041 5.048 5.048 0 0 1 5.042 5.041 5.048 5.048 0 0 1-5.042 5.042 5.048 5.048 0 0 1-5.041-5.042zm3.361 0c0 .927.753 1.681 1.68 1.681a1.681 1.681 0 1 0-1.68-1.681zm29.41-3.003c0 .929.752 1.68 1.681 1.68h5.041a1.68 1.68 0 1 0 0-3.361H78.57a1.68 1.68 0 0 0-1.681 1.681zm-1.52-8.623a1.679 1.679 0 0 0 2.153 1.004l4.738-1.723a1.68 1.68 0 1 0-1.148-3.157l-4.738 1.723a1.68 1.68 0 0 0-1.005 2.153zm-3.089-6.98c.381 0 .763-.129 1.079-.394l3.861-3.241a1.678 1.678 0 0 0 .207-2.367 1.679 1.679 0 0 0-2.367-.207l-3.862 3.241a1.678 1.678 0 0 0-.207 2.367c.333.397.809.601 1.289.601zM16.389 33.552h5.042c.929 0 1.68-.751 1.68-1.68a1.68 1.68 0 0 0-1.68-1.681h-5.042a1.68 1.68 0 0 0-1.68 1.681c0 .929.751 1.68 1.68 1.68zM17.74 22.53l4.738 1.723a1.68 1.68 0 1 0 1.148-3.157l-4.738-1.723a1.679 1.679 0 1 0-1.148 3.157zm8.901-6.655c.315.265.697.394 1.078.394a1.67 1.67 0 0 0 1.289-.601 1.679 1.679 0 0 0-.207-2.367l-3.862-3.241a1.68 1.68 0 1 0-2.16 2.574l3.862 3.241z" fill="#9ca3af" class="color000 svgShape"></path></svg>